<svg width="217" height="217" viewBox="0 0 217 217" fill="none" xmlns="http://www.w3.org/2000/svg">
<path fill-rule="evenodd" clip-rule="evenodd" d="M202.021 108.815C202.021 56.6789 159.771 29.1941 107.646 29.1941C55.5279 29.1941 13.2783 56.6789 13.2783 108.815C13.2783 119.252 15.039 129.261 18.164 138.646H18.1185C18.1185 138.646 48.3618 234.196 107.646 203.221C166.937 234.196 197.181 138.646 197.181 138.646H197.135C200.26 129.261 202.021 119.252 202.021 108.815Z" fill="#DE1116"/>
<path fill-rule="evenodd" clip-rule="evenodd" d="M202.02 108.815C202.02 76.0201 185.284 52.9937 159.907 40.4114C175.201 53.7281 184.608 72.7055 184.608 97.2007C184.608 107.638 182.848 117.647 179.723 127.038H179.768C179.768 127.038 156.191 201.414 109.894 197.586C107.958 200.309 105.658 202.851 103.195 205.288C104.664 204.657 106.138 204.007 107.646 203.221C166.937 234.196 197.18 138.646 197.18 138.646H197.135C200.26 129.261 202.02 119.252 202.02 108.815Z" fill="#8E1013"/>
<path fill-rule="evenodd" clip-rule="evenodd" d="M107.649 86.8775C84.4877 86.8775 74.6318 74.7566 74.2225 74.2367C71.9941 71.4226 72.4684 67.3346 75.288 65.1054C78.0947 62.8827 82.1878 63.3572 84.4097 66.1713C84.6111 66.4053 91.1535 73.8793 107.649 73.8793C124.145 73.8793 130.681 66.4053 130.954 66.0868C133.254 63.3832 137.327 62.9802 140.062 65.2224C142.798 67.4776 143.272 71.4551 141.076 74.2367C140.667 74.7566 130.811 86.8775 107.649 86.8775Z" fill="black"/>
<path fill-rule="evenodd" clip-rule="evenodd" d="M107.649 196.722C108.682 196.722 109.715 196.969 110.657 197.456C122.573 203.689 133.552 204.579 144.201 200.173C172.657 188.429 188.744 143.332 190.771 137.339C190.823 137.086 190.888 136.839 190.972 136.592C193.993 127.526 195.52 118.173 195.52 108.815C195.52 54.8395 148.184 35.6931 107.649 35.6931C67.1147 35.6931 19.7781 54.8395 19.7781 108.815C19.7781 118.173 21.3048 127.526 24.3259 136.592C24.4104 136.839 24.4753 137.092 24.5273 137.339C26.5674 143.351 42.7252 188.481 71.1103 200.186C81.7653 204.56 92.7257 203.676 104.641 197.456C105.583 196.969 106.616 196.722 107.649 196.722ZM130.752 215.914C123.183 215.914 115.465 214.101 107.649 210.468C93.3754 217.103 79.4329 217.695 66.1337 212.19C30.2511 197.378 12.6509 142.922 11.9233 140.608C11.8518 140.387 11.7933 140.167 11.7478 139.939C8.45389 129.774 6.78418 119.311 6.78418 108.815C6.78418 57.3027 47.3186 22.6948 107.649 22.6948C167.98 22.6948 208.514 57.3027 208.514 108.815C208.514 119.311 206.844 129.774 203.55 139.946C203.505 140.167 203.446 140.387 203.375 140.608C202.647 142.922 185.047 197.378 149.165 212.19C143.148 214.673 137.002 215.914 130.752 215.914Z" fill="#19191A"/>
<path fill-rule="evenodd" clip-rule="evenodd" d="M107.64 86.8717C104.866 86.8717 102.306 85.091 101.442 82.2964C100.87 80.4506 87.8697 36.6855 122.81 3.61794C125.409 1.16127 129.522 1.26526 131.997 3.87141C134.459 6.48406 134.342 10.598 131.737 13.0677C102.774 40.468 113.396 76.9411 113.864 78.4749C114.903 81.8999 112.974 85.5394 109.55 86.5858C108.913 86.7743 108.27 86.8717 107.64 86.8717Z" fill="black"/>
<path fill-rule="evenodd" clip-rule="evenodd" d="M37.4404 17.0134C109.05 -5.60351 105.671 52.5117 105.671 52.5117C105.671 52.5117 60.0498 88.6468 37.4404 17.0134Z" fill="#3BB777"/>
<path fill-rule="evenodd" clip-rule="evenodd" d="M37.4404 17.0132L105.671 52.5114C105.671 52.5114 60.0498 88.6466 37.4404 17.0132Z" fill="#229857"/>
<path fill-rule="evenodd" clip-rule="evenodd" d="M45.7885 21.3535C52.5519 39.6551 61.4657 50.6256 72.3415 54.0051C83.4383 57.4757 94.3337 52.0424 99.1219 49.1048C98.7776 43.5025 96.9454 31.4597 87.7588 24.3561C78.741 17.389 64.6492 16.3817 45.7885 21.3535ZM79.8455 68.1277C76.2397 68.1277 72.465 67.6403 68.6188 66.4575C52.175 61.4141 39.597 45.4393 31.2484 18.9683C30.7286 17.3241 30.8846 15.5368 31.6772 14.016C32.4763 12.4887 33.8407 11.3319 35.4844 10.8119C61.9464 2.46705 82.2429 3.5849 95.8085 14.1525C113.402 27.8526 112.213 51.8669 112.155 52.8938C112.051 54.7395 111.154 56.4488 109.699 57.6056C109.049 58.1191 96.1918 68.1277 79.8455 68.1277Z" fill="black"/>
<path fill-rule="evenodd" clip-rule="evenodd" d="M86.6512 109.733C63.4507 109.733 51.139 93.1533 50.6127 92.4254C49.0275 90.2482 49.5148 87.2001 51.6912 85.6208C53.8612 84.0481 56.8953 84.516 58.487 86.6867C58.9613 87.3236 69.181 100.816 88.3664 99.9449C91.0757 99.6135 93.3301 101.914 93.447 104.605C93.564 107.289 91.4785 109.57 88.7952 109.681C88.0676 109.713 87.3529 109.733 86.6512 109.733Z" fill="#FEFEFE"/>
<path fill-rule="evenodd" clip-rule="evenodd" d="M48.6871 70.4283C51.3703 72.703 51.7081 76.7259 49.4277 79.4101C47.1538 82.1007 43.1322 82.4322 40.4489 80.1575C37.7657 77.8828 37.4279 73.8598 39.7083 71.1692C41.9822 68.4851 46.0038 68.1536 48.6871 70.4283Z" fill="#FEFEFE"/>
</svg>
