<svg width="212" height="212" viewBox="0 0 212 212" fill="none" xmlns="http://www.w3.org/2000/svg">
<g clip-path="url(#clip0)">
<path fill-rule="evenodd" clip-rule="evenodd" d="M5.88418 169.513C5.88418 169.513 2.69255 174.383 22.758 177.489C42.8235 180.588 95.9485 229.684 181.069 125.441C204.856 96.3069 195.434 72.6466 198.637 54.6987C201.839 36.7508 210.985 26.6614 201.357 22.4062C191.729 18.1564 185.568 19.0996 184.266 23.2382C182.969 27.3714 187.077 54.8312 169.949 59.3036C146.242 65.4982 116.411 126.586 43.6809 150.967C43.6809 150.967 27.9927 157.294 16.6817 158.057C5.36548 158.82 4.28043 166.127 5.88418 169.513Z" fill="#FAD841"/>
<path fill-rule="evenodd" clip-rule="evenodd" d="M201.359 22.4083C197.395 20.6596 194.06 19.8329 191.366 19.7004C190.625 25.291 186.422 33.372 184.448 44.4312C181.23 62.4745 190.704 86.2567 166.791 115.539C81.2361 220.318 27.8358 170.967 7.66977 167.852C6.84936 167.724 6.12423 167.592 5.37793 167.459C5.45732 168.217 5.61082 168.933 5.88605 169.516C5.88605 169.516 2.69442 174.385 22.7599 177.485C42.8254 180.591 95.9504 229.686 181.066 125.443C204.858 96.309 195.436 72.6487 198.638 54.7007C201.835 36.7475 210.987 26.6581 201.359 22.4083Z" fill="#FAAC28"/>
<path fill-rule="evenodd" clip-rule="evenodd" d="M11.1139 168.942C12.3789 169.652 15.6817 171.035 23.5682 172.249C27.4532 172.848 31.7351 174.628 37.1551 176.88C61.963 187.187 108.144 206.369 176.968 122.088C193.026 102.423 192.804 85.6144 192.614 70.7876C192.534 64.8209 192.46 59.1774 193.423 53.767C194.583 47.2704 196.467 41.7594 197.981 37.3346C199.119 34.0121 200.833 28.9939 200.283 27.9182C200.283 27.9182 200.082 27.6374 199.224 27.2611C193.418 24.6964 190.295 24.8289 189.321 25.0779C189.258 25.9046 189.231 27.3989 189.21 28.6442C189.036 38.7866 188.676 59.8927 171.283 64.4287C163.82 66.3841 154.425 76.0602 142.532 88.3116C121.217 110.276 92.0215 140.348 45.3591 155.997C44.9833 156.156 29.0516 162.536 17.0367 163.341C13.898 163.553 11.6538 164.406 10.8863 165.683C10.4523 166.399 10.6058 167.103 10.6693 167.241C10.9022 167.776 11.0557 168.359 11.1139 168.942ZM76.1216 196.884C57.6916 196.889 43.2155 190.875 33.0954 186.673C28.5276 184.77 24.5738 183.128 21.9485 182.725C9.55251 180.807 3.10573 177.892 1.05737 173.287C0.53337 172.116 0.363997 170.966 0.416926 169.922C-0.435235 166.791 0.0252497 163.277 1.74016 160.347C3.57151 157.215 7.58884 153.363 16.3222 152.764C26.6486 152.07 41.5535 146.114 41.707 146.056C86.2205 131.117 114.379 102.11 134.942 80.93C147.984 67.4863 158.289 56.8723 168.61 54.1751C177.486 51.8594 178.434 39.6874 178.624 28.464C178.683 25.2157 178.714 23.255 179.217 21.6441C180.075 18.9098 182.033 16.7266 184.722 15.5078C189.279 13.4412 195.768 14.1512 203.496 17.5638C214.299 22.3277 210.805 32.5496 207.995 40.7684C206.529 45.0607 204.861 49.9305 203.845 55.627C203.056 60.0464 203.125 65.1971 203.199 70.6498C203.406 86.4622 203.66 106.143 185.166 128.796C140.769 183.17 103.941 196.884 76.1216 196.884Z" fill="black"/>
<path fill-rule="evenodd" clip-rule="evenodd" d="M55.551 165.025C53.7302 165.025 52.0947 163.769 51.6818 161.914C51.2055 159.778 52.5499 157.648 54.6882 157.171C54.9952 157.102 85.7365 149.996 109.137 126.871C110.687 125.34 113.207 125.345 114.747 126.908C116.287 128.472 116.271 130.989 114.71 132.531C89.6374 157.309 57.7581 164.632 56.419 164.929C56.1226 164.993 55.8368 165.025 55.551 165.025Z" fill="#FEFEFE"/>
<path fill-rule="evenodd" clip-rule="evenodd" d="M125.266 116.299C127.293 118.021 127.547 121.063 125.827 123.093C124.106 125.127 121.068 125.376 119.041 123.66C117.009 121.937 116.76 118.896 118.48 116.861C120.195 114.831 123.238 114.577 125.266 116.299Z" fill="#FEFEFE"/>
</g>
<defs>
<clipPath id="clip0">
<rect width="212" height="212" fill="white"/>
</clipPath>
</defs>
</svg>
