<svg width="388" height="102" viewBox="0 0 388 102" fill="none" xmlns="http://www.w3.org/2000/svg">
<path d="M191 0C162.833 0 140 22.8331 140 51C140 79.1669 162.833 102 191 102C219.167 102 242 79.1669 242 51C242 22.8331 219.167 0 191 0ZM191 93.5C167.527 93.5 148.5 74.4727 148.5 51C148.5 27.5273 167.527 8.5 191 8.5C214.473 8.5 233.5 27.5273 233.5 51C233.5 74.4727 214.473 93.5 191 93.5Z" fill="#FF0000"/>
<path d="M211.99 25.5063L190.999 46.495L170.011 25.5063L165.506 30.0156L186.492 51.0021L165.506 71.9886L170.017 76.4936L190.999 55.5113L211.984 76.4936L216.493 71.9886L195.509 51.0021L216.493 30.0156L211.99 25.5063Z" fill="#FF0000"/>
<path d="M45.5 96.9999C70.6289 96.9999 91 76.6289 91 51.4999C91 26.371 70.6289 6 45.5 6C20.371 6 0 26.371 0 51.4999C0 76.6289 20.371 96.9999 45.5 96.9999Z" fill="#FFD42A"/>
<path d="M14.615 18.1445C10.0134 22.3981 6.34002 27.5563 3.82511 33.2959C1.31019 39.0354 0.00794837 45.2325 0 51.4988C2.8463e-05 63.5662 4.79377 75.1393 13.3266 83.6722C21.8595 92.2051 33.4326 96.9988 45.4999 96.9988C53.5475 96.9931 61.4497 94.8531 68.4004 90.797C75.3511 86.7409 81.1017 80.914 85.0657 73.9103C84.2271 74.7049 83.3586 75.4672 82.462 76.1957C81.2741 77.1383 80.0398 78.021 78.7637 78.8403C77.4869 79.6607 76.1698 80.4166 74.8174 81.1053C73.4656 81.7929 72.0803 82.4126 70.6667 82.9618C69.2535 83.5121 67.8136 83.9914 66.3526 84.3979C64.8902 84.8035 63.4085 85.1357 61.9129 85.3932C60.4178 85.6512 58.9107 85.8343 57.3974 85.9417C56.3268 86.0177 55.2539 86.0557 54.1807 86.0558C52.6639 86.0557 51.1481 85.9796 49.6389 85.8281C48.1292 85.6765 46.6279 85.4496 45.1409 85.1481C43.6538 84.8462 42.1828 84.4702 40.7333 84.0214C39.2838 83.5734 37.8576 83.0531 36.46 82.4626C35.0628 81.8716 33.696 81.2111 32.3648 80.4836C31.0339 79.7567 29.7402 78.9638 28.4885 78.1077C27.2369 77.2511 26.0289 76.3324 24.8691 75.3552C23.7089 74.378 22.5983 73.3433 21.5415 72.2552C20.484 71.1666 19.4815 70.0259 18.538 68.8371C17.5954 67.6492 16.7128 66.415 15.8934 65.139C15.0741 63.8621 14.3191 62.5449 13.6313 61.1926C12.9427 59.8409 12.3221 58.4556 11.7719 57.0419C11.2225 55.6277 10.7442 54.1868 10.3388 52.7248C9.93325 51.2634 9.60104 49.7827 9.34341 48.2882C9.08532 46.7931 8.90219 45.286 8.79467 43.7726C8.71881 42.702 8.68084 41.6291 8.68085 40.5559C8.6809 39.0381 8.75689 37.5213 8.90854 36.0112C9.05923 34.5024 9.28524 33.0023 9.58573 31.5161C9.88757 30.0291 10.2636 28.5581 10.7124 27.1086C11.1604 25.6591 11.6806 24.2328 12.2711 22.8352C12.8621 21.438 13.5226 20.0712 14.2501 18.7399C14.3702 18.5405 14.4919 18.3421 14.615 18.1445H14.615Z" fill="#FFBC2A"/>
<path d="M33.0739 95.2264V35.9492H16.5879V86.6039C21.4307 90.5829 27.0433 93.5184 33.0739 95.2264V95.2264Z" fill="#0085A6"/>
<path d="M72.0358 88.3903V35.9492H55.5527V95.8189C61.4887 94.4702 67.0937 91.9441 72.0358 88.3903V88.3903Z" fill="#0085A6"/>
<path d="M14.958 35.9492H35.7157" stroke="#1A1A1A" stroke-width="4" stroke-linecap="round" stroke-linejoin="round"/>
<path d="M52.8877 35.9492H73.6454" stroke="#1A1A1A" stroke-width="4" stroke-linecap="round" stroke-linejoin="round"/>
<path d="M51.3632 75.6114C51.3632 75.6114 44.091 72.8759 38.4199 75.9451" stroke="#FFBC2A" stroke-width="4" stroke-linecap="round" stroke-linejoin="round"/>
<path d="M26.624 65.703C26.624 65.703 31.0586 62.7781 35.3989 65.6087C39.7391 68.4393 45.4003 62.0233 49.7406 63.533C54.0808 65.0426 56.4397 68.9112 62.7613 64.7596" stroke="#1A1A1A" stroke-width="4" stroke-linecap="round" stroke-linejoin="round"/>
<path d="M342.5 95.9999C367.629 95.9999 388 75.6289 388 50.4999C388 25.371 367.629 5 342.5 5C317.371 5 297 25.371 297 50.4999C297 75.6289 317.371 95.9999 342.5 95.9999Z" fill="#FFD42A"/>
<path d="M311.615 17.1445C307.013 21.3981 303.34 26.5563 300.825 32.2959C298.31 38.0354 297.008 44.2325 297 50.4988C297 62.5662 301.794 74.1393 310.327 82.6722C318.86 91.2051 330.433 95.9988 342.5 95.9988C350.548 95.9931 358.45 93.8531 365.4 89.797C372.351 85.7409 378.102 79.914 382.066 72.9103C381.227 73.7049 380.359 74.4672 379.462 75.1957C378.274 76.1383 377.04 77.021 375.764 77.8403C374.487 78.6607 373.17 79.4166 371.817 80.1053C370.466 80.7929 369.08 81.4126 367.667 81.9618C366.253 82.5121 364.814 82.9914 363.353 83.3979C361.89 83.8035 360.408 84.1357 358.913 84.3932C357.418 84.6512 355.911 84.8343 354.397 84.9417C353.327 85.0177 352.254 85.0557 351.181 85.0558C349.664 85.0557 348.148 84.9796 346.639 84.8281C345.129 84.6765 343.628 84.4496 342.141 84.1481C340.654 83.8462 339.183 83.4702 337.733 83.0214C336.284 82.5734 334.858 82.0531 333.46 81.4626C332.063 80.8716 330.696 80.2111 329.365 79.4836C328.034 78.7567 326.74 77.9638 325.489 77.1077C324.237 76.2511 323.029 75.3324 321.869 74.3552C320.709 73.378 319.598 72.3433 318.542 71.2552C317.484 70.1666 316.482 69.0259 315.538 67.8371C314.595 66.6492 313.713 65.415 312.893 64.139C312.074 62.8621 311.319 61.5449 310.631 60.1926C309.943 58.8409 309.322 57.4556 308.772 56.0419C308.223 54.6277 307.744 53.1868 307.339 51.7248C306.933 50.2634 306.601 48.7827 306.343 47.2882C306.085 45.7931 305.902 44.286 305.795 42.7726C305.719 41.702 305.681 40.6291 305.681 39.5559C305.681 38.0381 305.757 36.5213 305.909 35.0112C306.059 33.5024 306.285 32.0023 306.586 30.5161C306.888 29.0291 307.264 27.5581 307.712 26.1086C308.16 24.6591 308.681 23.2328 309.271 21.8352C309.862 20.438 310.523 19.0712 311.25 17.7399C311.37 17.5405 311.492 17.3421 311.615 17.1445H311.615Z" fill="#FFBC2A"/>
<path d="M330.074 94.2264V34.9492H313.588V85.6039C318.431 89.5829 324.043 92.5184 330.074 94.2264V94.2264Z" fill="#0085A6"/>
<path d="M369.036 87.3903V34.9492H352.553V94.8189C358.489 93.4702 364.094 90.9441 369.036 87.3903V87.3903Z" fill="#0085A6"/>
<path d="M311.958 34.9492H332.716" stroke="#1A1A1A" stroke-width="4" stroke-linecap="round" stroke-linejoin="round"/>
<path d="M349.888 34.9492H370.645" stroke="#1A1A1A" stroke-width="4" stroke-linecap="round" stroke-linejoin="round"/>
<path d="M348.363 74.6114C348.363 74.6114 341.091 71.8759 335.42 74.9451" stroke="#FFBC2A" stroke-width="4" stroke-linecap="round" stroke-linejoin="round"/>
<path d="M323.624 64.703C323.624 64.703 328.059 61.7781 332.399 64.6087C336.739 67.4393 342.4 61.0233 346.741 62.533C351.081 64.0426 353.44 67.9112 359.761 63.7596" stroke="#1A1A1A" stroke-width="4" stroke-linecap="round" stroke-linejoin="round"/>
</svg>
