<svg width="468" height="166" viewBox="0 0 468 166" fill="none" xmlns="http://www.w3.org/2000/svg">
<path d="M224.781 94.6719H209.219V132.982H224.781V94.6719Z" fill="#FFCE47"/>
<path d="M210.749 94.6719H209.219V132.982H210.749V94.6719Z" fill="#FFDA75"/>
<path d="M209.219 94.6719V111.038C212.05 112.19 215.012 112.991 218.038 113.425C218.909 113.543 219.708 113.971 220.289 114.631C220.87 115.291 221.194 116.138 221.202 117.017V132.969H224.781V94.6719H209.219Z" fill="#F69652"/>
<path d="M251.497 96.2542H237.076V85.8792H251.497C256.448 85.8723 261.194 83.9025 264.695 80.4018C268.196 76.901 270.166 72.155 270.172 67.2042V57.3479C270.172 56.66 269.899 56.0003 269.413 55.5138C268.926 55.0274 268.267 54.7542 267.579 54.7542H249.591V44.3792H267.579C271.018 44.3792 274.317 45.7455 276.749 48.1776C279.181 50.6097 280.547 53.9084 280.547 57.3479V67.2042C280.537 74.9055 277.473 82.2885 272.028 87.7342C266.582 93.1799 259.199 96.2439 251.497 96.2542V96.2542Z" fill="#FFCE47"/>
<path d="M276.06 47.5693C279.951 52.0695 279.251 55.8304 279.251 65.9072C279.241 72.1901 277.198 78.3011 273.428 83.3269C269.657 88.3527 264.361 92.0233 258.332 93.79C257.795 93.9466 257.226 93.9594 256.683 93.8269C256.139 93.6944 255.64 93.4213 255.236 93.0351C254.831 92.6488 254.535 92.163 254.377 91.6263C254.22 91.0896 254.206 90.5208 254.338 89.9772C254.703 88.5042 254.976 87.0099 255.155 85.5029C252.742 85.9828 252.755 85.8661 237.076 85.8661V96.2411H251.497C259.2 96.2411 266.587 93.1822 272.034 87.7371C277.482 82.292 280.544 74.9063 280.547 67.204C280.547 57.672 281.572 52.3548 276.06 47.5693Z" fill="#F69652"/>
<path d="M196.911 96.2542H182.503C174.802 96.2439 167.419 93.1799 161.973 87.7342C156.527 82.2885 153.463 74.9055 153.453 67.2042V57.3479C153.453 53.9084 154.819 50.6097 157.252 48.1776C159.684 45.7455 162.982 44.3792 166.422 44.3792H184.41V54.7542H166.422C165.734 54.7542 165.074 55.0274 164.588 55.5138C164.101 56.0003 163.828 56.66 163.828 57.3479V67.2042C163.835 72.155 165.805 76.901 169.305 80.4018C172.806 83.9025 177.552 85.8723 182.503 85.8792H196.911V96.2542Z" fill="#FFCE47"/>
<path d="M183.113 44.3792V53.4573H179.144L179.235 44.3792L178.094 50.5782C177.954 51.3775 177.536 52.1017 176.915 52.6235C176.293 53.1453 175.508 53.4314 174.696 53.4313H165.125C164.437 53.4313 163.778 53.7046 163.291 54.191C162.805 54.6775 162.532 55.3372 162.532 56.0251C162.532 65.8684 161.39 73.079 168.692 79.6931C165.574 76.2799 163.84 71.8271 163.828 67.2042V57.3479C163.828 56.66 164.102 56.0003 164.588 55.5138C165.075 55.0274 165.734 54.7542 166.422 54.7542H184.41V44.3792H183.113Z" fill="#F69652"/>
<path d="M184.422 44.3792H180.44V54.7542H184.422V44.3792Z" fill="#F69652"/>
<path d="M181.09 85.8142C181.512 88.0283 182.137 90.1989 182.957 92.2986C183.072 92.5862 183.114 92.8975 183.08 93.2052C183.046 93.5129 182.938 93.8076 182.764 94.0636C182.59 94.3196 182.355 94.529 182.082 94.6734C181.808 94.8179 181.503 94.8931 181.193 94.8923C173.807 94.8964 166.699 92.0754 161.325 87.0073C171.35 97.6676 182.075 96.1892 196.898 96.1892V85.8142C180.688 85.8791 182.399 85.905 181.09 85.8142Z" fill="#F69652"/>
<path d="M254.765 31.5142H179.235V74.0517C179.235 84.0693 183.215 93.6766 190.298 100.76C197.382 107.844 206.989 111.823 217.007 111.823C227.024 111.823 236.632 107.844 243.715 100.76C250.799 93.6766 254.778 84.0693 254.778 74.0517L254.765 31.5142Z" fill="#FFC219"/>
<path d="M266.282 53.4573H261.094C259.883 53.457 258.713 53.0202 257.799 52.2269C256.884 51.4337 256.286 50.3372 256.114 49.1387L255.44 44.3792H249.591V54.7541C268.94 54.7541 267.851 54.6245 268.642 54.9876C268.437 54.5325 268.106 54.1461 267.687 53.8747C267.269 53.6032 266.781 53.4583 266.282 53.4573Z" fill="#F69652"/>
<path d="M181.648 74.0517V31.5142H179.235V74.0517C179.234 79.1125 180.251 84.1219 182.225 88.782C184.199 93.442 187.089 97.6577 190.725 101.178C194.36 104.699 198.667 107.453 203.388 109.276C208.109 111.099 213.148 111.954 218.206 111.791C208.406 111.478 199.111 107.364 192.288 100.321C185.465 93.2783 181.649 83.8576 181.648 74.0517Z" fill="#FFCE47"/>
<path d="M249.759 31.5142V39.2046H181.647L244.507 42.6673C245.915 42.7596 247.236 43.3849 248.199 44.416C249.163 45.4471 249.697 46.8066 249.694 48.2179V74.0517C249.694 83.6225 246.059 92.836 239.525 99.8296C232.991 106.823 224.046 111.075 214.497 111.726C219.656 112.07 224.83 111.352 229.7 109.614C234.569 107.877 239.03 105.158 242.805 101.626C246.581 98.0934 249.59 93.8233 251.648 89.0802C253.705 84.337 254.766 79.2218 254.765 74.0517V31.5142H249.759Z" fill="#F47C27"/>
<path d="M253.312 20.75H180.688C177.823 20.75 175.5 23.0725 175.5 25.9375V34.0041C175.5 36.869 177.823 39.1916 180.688 39.1916H253.312C256.177 39.1916 258.5 36.869 258.5 34.0041V25.9375C258.5 23.0725 256.177 20.75 253.312 20.75Z" fill="#FFCE47"/>
<path d="M256.257 21.6707C257.437 23.3825 257.177 24.0699 257.177 32.6811C257.177 34.0569 256.631 35.3764 255.658 36.3492C254.685 37.3221 253.366 37.8686 251.99 37.8686C173.334 37.8686 178.327 38.2577 176.421 36.9478C178.561 40.0474 174.761 39.1914 253.313 39.1914C254.688 39.1914 256.008 38.6449 256.981 37.6721C257.954 36.6992 258.5 35.3797 258.5 34.0039C258.5 25.7947 259.084 23.616 256.257 21.6707Z" fill="#F69652"/>
<path d="M249.279 145.25H184.72C184.193 145.249 183.675 145.112 183.216 144.853C182.757 144.594 182.372 144.222 182.098 143.771C181.825 143.321 181.672 142.807 181.654 142.28C181.636 141.753 181.754 141.231 181.997 140.763L190.738 124.007C191.256 123.014 192.037 122.182 192.995 121.602C193.953 121.021 195.051 120.714 196.172 120.713H237.814C238.934 120.714 240.033 121.021 240.991 121.602C241.949 122.182 242.729 123.014 243.248 124.007L252.015 140.763C252.258 141.232 252.376 141.756 252.357 142.284C252.339 142.811 252.185 143.326 251.91 143.777C251.635 144.228 251.248 144.6 250.787 144.858C250.326 145.116 249.807 145.251 249.279 145.25V145.25Z" fill="#333333"/>
<path d="M182.71 140.763L191.451 124.007C191.97 123.014 192.75 122.182 193.708 121.602C194.666 121.021 195.765 120.714 196.885 120.713C194.162 120.713 192.009 121.569 190.738 124.007L181.984 140.763C181.742 141.231 181.624 141.753 181.641 142.28C181.659 142.807 181.812 143.321 182.086 143.771C182.359 144.222 182.744 144.595 183.203 144.853C183.662 145.112 184.18 145.249 184.707 145.25H185.421C184.895 145.247 184.378 145.109 183.921 144.849C183.464 144.589 183.081 144.216 182.809 143.766C182.537 143.315 182.385 142.803 182.368 142.277C182.35 141.751 182.468 141.23 182.71 140.763Z" fill="#4D4D4D"/>
<path d="M252.016 140.763L243.262 124.007C242.743 123.014 241.962 122.182 241.004 121.602C240.047 121.021 238.948 120.714 237.828 120.713H196.185L235.701 123.942C236.651 124.02 237.565 124.345 238.352 124.884C239.139 125.423 239.772 126.158 240.188 127.016L245.505 138.013C245.698 138.4 245.791 138.829 245.776 139.26C245.761 139.692 245.638 140.113 245.419 140.485C245.2 140.858 244.892 141.169 244.522 141.392C244.152 141.615 243.732 141.742 243.301 141.761L184.721 145.25H249.279C249.807 145.251 250.327 145.116 250.788 144.858C251.249 144.6 251.635 144.228 251.91 143.777C252.185 143.326 252.34 142.811 252.358 142.284C252.376 141.756 252.258 141.232 252.016 140.763V140.763Z" fill="#1F1F1F"/>
<path d="M253.312 20.75H180.688C179.312 20.75 177.992 21.2965 177.019 22.2694C176.047 23.2422 175.5 24.5617 175.5 25.9375V34.0041L177.367 25.0686C177.508 24.3858 177.875 23.7706 178.41 23.3232C178.944 22.8758 179.615 22.6225 180.311 22.6045L253.312 20.75Z" fill="#FFDA75"/>
<path d="M89.5196 128.23L84.8496 123C84.8496 123 92.8496 119.89 93.7796 115C93.7796 115 96.9996 121.56 89.5196 128.23Z" fill="#DE8B4E"/>
<path d="M48.5996 79.4499C48.5996 79.4499 53.3696 102.37 66.8496 97.5499C80.3296 92.7299 74.7596 60.9099 65.1996 64.4699C55.6396 68.0299 82.1096 97.4699 91.7596 75.0899C101.41 52.7099 75.4996 39.2899 72.1796 47.2299C68.8596 55.1699 91.6896 69.2299 106.72 51.7399" stroke="#FE9F59" stroke-width="4" stroke-miterlimit="10"/>
<path d="M27.6904 33.9099C27.6904 33.9099 9.15035 32.3299 9.74035 43.6999C10.3304 55.0699 35.8604 58.0599 35.3204 49.9999C34.7804 41.9399 6.32035 55.3599 21.1904 67.8199C36.0604 80.2799 52.1904 63.5799 46.8804 59.2399C41.5704 54.8999 25.6504 69.0599 35.5804 84.4999" stroke="#FE5959" stroke-width="4" stroke-miterlimit="10"/>
<path d="M36.3498 111.91C36.3498 111.91 30.5698 123 37.7998 125.61C45.0298 128.22 53.4998 113.07 48.3198 111.31C43.1398 109.55 44.1498 130.77 55.7598 124.72C67.3698 118.67 61.1298 104.34 57.0598 106.51C52.9898 108.68 59.9998 126 76.9998 120" stroke="#7688F1" stroke-width="4" stroke-miterlimit="10"/>
<path d="M42.2002 35.8301L41.9102 41.5501L48.8002 43.8101L47.9202 36.1201L42.2002 35.8301Z" fill="#FE9F59"/>
<path d="M98.2598 78.79L96.2998 82.37L100.03 85.95L101.84 80.74L98.2598 78.79Z" fill="#FE5959"/>
<path d="M104.2 69.8301L103.91 75.5501L107 76.0001L109.92 70.1201L104.2 69.8301Z" fill="#FE9F59"/>
<path d="M38.9501 98.7599L43.9101 95.8899L42.0501 88.8799L36.0801 93.7999L38.9501 98.7599Z" fill="#FE9F59"/>
<path d="M26.0102 81.3599L24.2402 75.9199L16.9902 76.2699L20.5602 83.1399L26.0102 81.3599Z" fill="#FE5959"/>
<path d="M71.9196 106.98L75.4196 104.95L74.1096 100L69.8896 103.48L71.9196 106.98Z" fill="#7681C2"/>
<path d="M20.5999 90.1699L18.1799 86.9299L13.4199 88.8099L17.3599 92.5899L20.5999 90.1699Z" fill="#7681C2"/>
<path d="M98.4805 106.77L103.15 112C103.15 112 95.1505 115.11 94.2205 120C94.2205 120 91.0005 113.44 98.4805 106.77Z" fill="#FE9F59"/>
<path d="M41.2199 102.46L39.9999 109.34C39.9999 109.34 32.6399 105 28.1699 107.2C28.1699 107.2 31.3799 100.67 41.2199 102.46Z" fill="#DE5050"/>
<path d="M18.7803 108.54L20.0003 101.66C20.0003 101.66 27.3603 106 31.8303 103.8C31.8303 103.8 28.6203 110.33 18.7803 108.54Z" fill="#FE5959"/>
<path d="M46 55.3899L46.72 48.3899C46.72 48.3899 54.37 52.1999 58.66 49.6299C58.7 49.6699 56 56.4199 46 55.3899Z" fill="#7681C2"/>
<path d="M68.0003 47.6101L67.2803 54.6101C67.2803 54.6101 59.6303 50.8001 55.3403 53.3701C55.3003 53.3301 58.0003 46.5801 68.0003 47.6101Z" fill="#5F6DC2"/>
<path d="M92.2698 46.1901L89.5498 39.7401C89.5498 39.7401 98.0898 39.3901 100.61 35.0801C100.6 35.0701 101.48 42.3001 92.2698 46.1901Z" fill="#7681C2"/>
<path d="M62.5 85C63.3284 85 64 84.3284 64 83.5C64 82.6716 63.3284 82 62.5 82C61.6716 82 61 82.6716 61 83.5C61 84.3284 61.6716 85 62.5 85Z" fill="#7681C2"/>
<path d="M66.5 40.5C67.6046 40.5 68.5 39.6046 68.5 38.5C68.5 37.3954 67.6046 36.5 66.5 36.5C65.3954 36.5 64.5 37.3954 64.5 38.5C64.5 39.6046 65.3954 40.5 66.5 40.5Z" fill="#7681C2"/>
<path d="M80.5 113C81.3284 113 82 112.328 82 111.5C82 110.672 81.3284 110 80.5 110C79.6716 110 79 110.672 79 111.5C79 112.328 79.6716 113 80.5 113Z" fill="#FE9F59"/>
<path d="M49.5 33C50.3284 33 51 32.3284 51 31.5C51 30.6716 50.3284 30 49.5 30C48.6716 30 48 30.6716 48 31.5C48 32.3284 48.6716 33 49.5 33Z" fill="#FE9F59"/>
<path d="M12.5 73C13.3284 73 14 72.3284 14 71.5C14 70.6716 13.3284 70 12.5 70C11.6716 70 11 70.6716 11 71.5C11 72.3284 11.6716 73 12.5 73Z" fill="#FE9F59"/>
<path d="M104.5 67C105.328 67 106 66.3284 106 65.5C106 64.6716 105.328 64 104.5 64C103.672 64 103 64.6716 103 65.5C103 66.3284 103.672 67 104.5 67Z" fill="#FE5959"/>
<path d="M51.5 73C52.3284 73 53 72.3284 53 71.5C53 70.6716 52.3284 70 51.5 70C50.6716 70 50 70.6716 50 71.5C50 72.3284 50.6716 73 51.5 73Z" fill="#FE5959"/>
<path d="M88.5 96C89.8807 96 91 94.8807 91 93.5C91 92.1193 89.8807 91 88.5 91C87.1193 91 86 92.1193 86 93.5C86 94.8807 87.1193 96 88.5 96Z" fill="#FE5959"/>
<path d="M94 94C94 94 95 104 103 103C111 102 117 103 116 112C115 121 110 122 110 122L115 120V126C115 126 122 115 120 107C118 99 104 102 104 102C104 102 100 100 102 96L94 94Z" fill="#FE5959"/>
<path d="M33 89C33 89 32 99 24 98C16 97 10 98 11 107C12 116 17 117 17 117L12 115V121C12 121 5 110 7 102C9 94 23 97 23 97C23 97 27 95 25 91L33 89Z" fill="#FE9F59"/>
<path d="M429.52 128.23L424.85 123C424.85 123 432.85 119.89 433.78 115C433.78 115 437 121.56 429.52 128.23Z" fill="#DE8B4E"/>
<path d="M388.6 79.4499C388.6 79.4499 393.37 102.37 406.85 97.5499C420.33 92.7299 414.76 60.9099 405.2 64.4699C395.64 68.0299 422.11 97.4699 431.76 75.0899C441.41 52.7099 415.5 39.2899 412.18 47.2299C408.86 55.1699 431.69 69.2299 446.72 51.7399" stroke="#FE9F59" stroke-width="4" stroke-miterlimit="10"/>
<path d="M367.69 33.9099C367.69 33.9099 349.15 32.3299 349.74 43.6999C350.33 55.0699 375.86 58.0599 375.32 49.9999C374.78 41.9399 346.32 55.3599 361.19 67.8199C376.06 80.2799 392.19 63.5799 386.88 59.2399C381.57 54.8999 365.65 69.0599 375.58 84.4999" stroke="#FE5959" stroke-width="4" stroke-miterlimit="10"/>
<path d="M376.35 111.91C376.35 111.91 370.57 123 377.8 125.61C385.03 128.22 393.5 113.07 388.32 111.31C383.14 109.55 384.15 130.77 395.76 124.72C407.37 118.67 401.13 104.34 397.06 106.51C392.99 108.68 400 126 417 120" stroke="#7688F1" stroke-width="4" stroke-miterlimit="10"/>
<path d="M382.2 35.8301L381.91 41.5501L388.8 43.8101L387.92 36.1201L382.2 35.8301Z" fill="#FE9F59"/>
<path d="M438.26 78.79L436.3 82.37L440.03 85.95L441.84 80.74L438.26 78.79Z" fill="#FE5959"/>
<path d="M444.2 69.8301L443.91 75.5501L447 76.0001L449.92 70.1201L444.2 69.8301Z" fill="#FE9F59"/>
<path d="M378.95 98.7599L383.91 95.8899L382.05 88.8799L376.08 93.7999L378.95 98.7599Z" fill="#FE9F59"/>
<path d="M366.01 81.3599L364.24 75.9199L356.99 76.2699L360.56 83.1399L366.01 81.3599Z" fill="#FE5959"/>
<path d="M411.92 106.98L415.42 104.95L414.11 100L409.89 103.48L411.92 106.98Z" fill="#7681C2"/>
<path d="M360.6 90.1699L358.18 86.9299L353.42 88.8099L357.36 92.5899L360.6 90.1699Z" fill="#7681C2"/>
<path d="M438.48 106.77L443.15 112C443.15 112 435.15 115.11 434.22 120C434.22 120 431 113.44 438.48 106.77Z" fill="#FE9F59"/>
<path d="M381.22 102.46L380 109.34C380 109.34 372.64 105 368.17 107.2C368.17 107.2 371.38 100.67 381.22 102.46Z" fill="#DE5050"/>
<path d="M358.78 108.54L360 101.66C360 101.66 367.36 106 371.83 103.8C371.83 103.8 368.62 110.33 358.78 108.54Z" fill="#FE5959"/>
<path d="M386 55.3899L386.72 48.3899C386.72 48.3899 394.37 52.1999 398.66 49.6299C398.7 49.6699 396 56.4199 386 55.3899Z" fill="#7681C2"/>
<path d="M408 47.6101L407.28 54.6101C407.28 54.6101 399.63 50.8001 395.34 53.3701C395.3 53.3301 398 46.5801 408 47.6101Z" fill="#5F6DC2"/>
<path d="M432.27 46.1901L429.55 39.7401C429.55 39.7401 438.09 39.3901 440.61 35.0801C440.6 35.0701 441.48 42.3001 432.27 46.1901Z" fill="#7681C2"/>
<path d="M402.5 85C403.328 85 404 84.3284 404 83.5C404 82.6716 403.328 82 402.5 82C401.672 82 401 82.6716 401 83.5C401 84.3284 401.672 85 402.5 85Z" fill="#7681C2"/>
<path d="M406.5 40.5C407.605 40.5 408.5 39.6046 408.5 38.5C408.5 37.3954 407.605 36.5 406.5 36.5C405.395 36.5 404.5 37.3954 404.5 38.5C404.5 39.6046 405.395 40.5 406.5 40.5Z" fill="#7681C2"/>
<path d="M420.5 113C421.328 113 422 112.328 422 111.5C422 110.672 421.328 110 420.5 110C419.672 110 419 110.672 419 111.5C419 112.328 419.672 113 420.5 113Z" fill="#FE9F59"/>
<path d="M389.5 33C390.328 33 391 32.3284 391 31.5C391 30.6716 390.328 30 389.5 30C388.672 30 388 30.6716 388 31.5C388 32.3284 388.672 33 389.5 33Z" fill="#FE9F59"/>
<path d="M352.5 73C353.328 73 354 72.3284 354 71.5C354 70.6716 353.328 70 352.5 70C351.672 70 351 70.6716 351 71.5C351 72.3284 351.672 73 352.5 73Z" fill="#FE9F59"/>
<path d="M444.5 67C445.328 67 446 66.3284 446 65.5C446 64.6716 445.328 64 444.5 64C443.672 64 443 64.6716 443 65.5C443 66.3284 443.672 67 444.5 67Z" fill="#FE5959"/>
<path d="M391.5 73C392.328 73 393 72.3284 393 71.5C393 70.6716 392.328 70 391.5 70C390.672 70 390 70.6716 390 71.5C390 72.3284 390.672 73 391.5 73Z" fill="#FE5959"/>
<path d="M428.5 96C429.881 96 431 94.8807 431 93.5C431 92.1193 429.881 91 428.5 91C427.119 91 426 92.1193 426 93.5C426 94.8807 427.119 96 428.5 96Z" fill="#FE5959"/>
<path d="M434 94C434 94 435 104 443 103C451 102 457 103 456 112C455 121 450 122 450 122L455 120V126C455 126 462 115 460 107C458 99 444 102 444 102C444 102 440 100 442 96L434 94Z" fill="#FE5959"/>
<path d="M373 89C373 89 372 99 364 98C356 97 350 98 351 107C352 116 357 117 357 117L352 115V121C352 121 345 110 347 102C349 94 363 97 363 97C363 97 367 95 365 91L373 89Z" fill="#FE9F59"/>
</svg>
